<svg version="1.1" xmlns="http://www.w3.org/2000/svg" viewBox="0 0 590.01171875 584.3790893554688" width="590.01171875" height="584.3790893554688">
  <!-- svg-source:excalidraw -->
  
  <defs>
    <style class="style-fonts">
      @font-face {
        font-family: "Virgil";
        src: url("https://excalidraw.com/Virgil.woff2");
      }
      @font-face {
        font-family: "Cascadia";
        src: url("https://excalidraw.com/Cascadia.woff2");
      }
    </style>
    
  </defs>
  <rect x="0" y="0" width="590.01171875" height="584.3790893554688" fill="#ffffff"></rect><g stroke-linecap="round" transform="translate(144.90350341796875 160.48785400390625) rotate(0 145.5 145.5)"><path d="M46.24 40.2 C46.24 40.2, 46.24 40.2, 46.24 40.2 M46.24 40.2 C46.24 40.2, 46.24 40.2, 46.24 40.2 M18.25 77.66 C28.38 66.52, 35.62 56.13, 62.28 30.99 M17.78 79.1 C33.34 58.97, 50.4 41.79, 59.89 29.12 M13.58 88.11 C35.39 67.16, 54.76 45.44, 73.33 19.69 M15.54 88.57 C36.11 65.54, 56.44 41.49, 73.73 20.21 M10.93 100.74 C28.89 81.32, 41.69 65, 83.99 13.64 M10.77 99.39 C30.63 76.38, 49.11 55.08, 83.29 15.65 M8.98 107.9 C25.09 89.39, 41.9 70.95, 90.94 14.35 M8.07 110.31 C28.14 85.29, 51.66 58.77, 91.03 12.6 M4.69 121.26 C43.66 78.85, 77.81 33.62, 96.23 11.15 M2.84 118.98 C23.03 96.27, 44.82 73.89, 98.6 10.33 M3.61 124.52 C30.41 95.14, 60.72 64.06, 104.47 8.42 M2.96 125.33 C33.3 92.18, 63.03 58.42, 105.31 8.24 M2.62 132.21 C34.46 96.67, 64.59 61.36, 109.99 6.1 M4.65 131.21 C30.94 99.6, 57.03 69.94, 112.45 7.07 M1.61 136.89 C46.67 86.93, 88.16 41.05, 117.31 7.17 M3.48 138.32 C28.06 108.41, 52.02 79.44, 119.13 5.14 M4.64 143.92 C29.02 114.11, 56.95 85.46, 126.34 4.39 M2.76 143.67 C45.39 96.61, 87.7 49.36, 126.62 1.92 M2.47 149.18 C49.98 97.78, 95.9 43.71, 132.86 0.37 M3.33 150.14 C53.58 92.09, 104.47 34.06, 132.18 2.7 M3.13 156.87 C55.55 96.62, 108.15 36.37, 136.43 2.7 M3.32 156.94 C31.5 126.83, 56.86 95.54, 137.94 2.63 M3.4 163.36 C49.95 109.57, 98.76 53.15, 143.58 4.61 M3.12 164.21 C43.29 115.91, 86.58 66.32, 142.48 2.29 M3.6 166.95 C39.32 127.12, 72.46 89.19, 146.32 1.69 M2.95 167.8 C50.7 113.99, 97.41 61.2, 147.76 3.48 M4.14 174.16 C45.69 125.09, 83.19 80.17, 152.55 2.6 M4.82 172.32 C41.54 130.91, 76.74 91.31, 153.12 2.99 M6.35 177.78 C39.19 140.57, 72.17 104.08, 159.13 3.86 M5.71 178.05 C62.2 114.98, 118.33 50.5, 157.68 2.83 M8.15 181.75 C61.51 123.84, 111.17 64.26, 163.43 2.52 M8.01 182.54 C41.69 142.06, 76.41 100.54, 162.35 4.06 M9.41 185.72 C42.22 147.32, 77.92 107.89, 167.92 5.2 M8.9 186.4 C62.76 124.63, 116.54 62.5, 166.96 3.32 M10.27 190.36 C64.76 128.69, 119.14 64.78, 174.92 2.79 M9.87 192.32 C52.66 144.09, 94.62 94.53, 173.04 3.3 M12.8 195.04 C76.52 120.51, 144.18 42.21, 177.36 3.76 M11.13 195.14 C45.89 155.26, 81.69 113.27, 177.06 4.96 M12.95 200.13 C70.24 134.49, 128.94 66.64, 181.43 6.99 M12.69 201.16 C65.13 139.66, 115.03 81.34, 182.66 6.03 M15.27 204.63 C72.95 143.29, 127.6 76.7, 185.37 7.66 M13.95 205.19 C71.82 137.86, 129.96 70.2, 185.48 7.22 M15.94 210.38 C62.07 157.87, 105.88 106.42, 190.38 8.41 M16.98 208.42 C63.43 155.47, 111.06 99.88, 189.79 9.41 M18.33 213.49 C56.43 167.18, 95.38 126.55, 193.88 10.51 M17.64 213.44 C54.17 170.33, 92.13 127.44, 194.66 10.46 M20.94 215.51 C57.87 177.43, 92.49 136.03, 198.2 11.36 M19.8 217.01 C65.07 165.75, 109.08 114.22, 197.45 11.13 M22.09 219.41 C81.58 155.35, 136.84 86.66, 203.45 14.35 M22.05 219.44 C76.28 157.95, 128.53 97.22, 201.82 12.89 M25.92 223.15 C90.57 152.24, 152.32 77.61, 207.18 14.26 M24.8 223.26 C77.08 164.16, 127.54 106.07, 207.31 13.32 M26.68 226.3 C85.48 157.46, 146.42 90.28, 210.48 15.66 M27.92 226.42 C66.12 180.64, 104.29 136.12, 211.8 15.71 M30.73 229.65 C87.06 163.28, 143.82 98.91, 213.91 18.44 M29 230.24 C98.74 150.3, 167.26 70.9, 214.72 16.88 M32.3 234.74 C97.45 156.33, 165.02 79.06, 219.21 19.15 M32.33 233.41 C99.21 154.58, 166.39 77.48, 218.02 19.68 M35.32 237.45 C95.86 167.5, 155.56 99.44, 221.21 22.01 M34.97 236.84 C91.66 170.54, 148.22 105.45, 222.16 21.71 M35.54 239.79 C109.74 157.41, 181.14 73.9, 225.6 24.75 M37.25 240.71 C91.85 176.92, 147.07 114.12, 224.96 24.6 M38.41 244.17 C90.19 185.91, 141.58 127.23, 226.53 28.23 M38.85 243.98 C113.2 156.72, 188.21 70.99, 227.59 27.45 M40.9 246.99 C79.28 203.66, 119.2 160.43, 231.61 29.91 M41.24 247.57 C99.79 180.17, 160.03 111.07, 230.18 29.97 M44.43 250.34 C98.8 188.79, 151.81 129.57, 232.8 31.84 M44.88 250.03 C111.99 172.77, 179.21 96.06, 233.81 31.96 M47.15 251.82 C95.82 195.24, 144.44 140.41, 237.54 33.43 M47.07 251.47 C106.97 185.43, 165.25 119.23, 236.5 34.23 M49.65 253.23 C108.18 188.6, 167.72 123.52, 239.41 37.18 M49.98 255.32 C94.5 205.29, 139.06 154.87, 240.87 35.81 M54.99 257.88 C94.17 207.38, 136.21 161.13, 243.51 37.7 M54.23 257.14 C114.08 189.37, 172.59 122.62, 242.9 38.59 M57.76 260.49 C120.95 185.47, 186.76 110.05, 246.18 42.41 M56.32 259.17 C102.04 204.58, 150.12 151.21, 245.63 41.56 M60.12 261.06 C98.04 218.3, 135.83 175.49, 248.04 43.37 M59.6 262.22 C119.93 192.88, 180.65 123.07, 249.11 44.7 M63.53 264.52 C104.99 213.47, 147.43 164.88, 252.02 46.21 M63.99 264.36 C136.67 178.83, 211.13 94.78, 252.38 46.96 M67.08 266.82 C133.24 189.67, 199.91 111.56, 253.79 50.2 M66.7 267.12 C124.78 199.08, 182.82 132.31, 255.33 50.93 M68.19 269.58 C110.76 223.43, 150.11 173.73, 256.67 53.13 M69.92 269.64 C144.02 183.16, 218.37 96.68, 256.57 53.25 M72.79 272.95 C127.33 211.38, 177.47 153.97, 260.51 57.74 M72.3 272.69 C110.64 228.98, 149.98 185.35, 259.69 57.62 M75.08 274.46 C120.99 226.26, 165.61 175.66, 262.91 60.75 M75.42 273.47 C147.2 193.01, 218.93 111.93, 262.02 59.88 M80.29 277 C149.88 192.28, 223.03 110.11, 265.03 65.37 M80.14 275.73 C132.17 215.17, 185.82 153.8, 264.27 64.08 M83.27 276.24 C123.73 232.04, 164.55 186.1, 265.9 68.73 M84.47 277.81 C123.3 233.07, 162.61 187.8, 265.85 67.53 M87.68 278.6 C152.51 205.67, 218.72 130.64, 268.94 70.68 M88.35 278.83 C127.28 232.75, 167.84 186.75, 269.27 70.06 M93.01 280.2 C156.1 208.18, 219.32 133.66, 270.03 73.41 M92.42 279.75 C152.5 210.62, 211.68 142.88, 270.69 74.32 M96.69 280.2 C145.18 223.71, 193.73 170.08, 273.33 78.03 M96.48 281.98 C133.05 238.55, 169.74 197.6, 273.64 78.17 M100.2 283.76 C147.28 229.61, 190.47 179.89, 276.17 80.99 M100.37 282.99 C156.47 217.07, 212.47 152.63, 276.44 81.1 M105.58 284.24 C151.66 227.42, 201.31 168.48, 278.75 83.05 M104.53 284.15 C142.93 238.2, 181.21 194.14, 278.16 84.46 M108.33 285.63 C176.69 207.87, 240.18 133.61, 280.77 89.77 M108.62 285.55 C166.46 216.36, 225.49 148.32, 279.44 87.66 M112.42 287.37 C172.97 214.2, 236.29 144.51, 279.96 93.67 M113.32 287.06 C149.56 244.34, 186.89 202.58, 280.38 93.22 M117.23 288.36 C155.77 244.25, 194.87 199, 282.76 98.52 M117.73 288.33 C172.76 226.99, 224.94 165.84, 282.66 96.64 M119.88 290.81 C173.81 227.19, 228.22 163.52, 284.7 101.13 M121.18 289.86 C167.34 233.66, 214.91 180.95, 283.69 102.35 M124.72 290.23 C178.8 227.83, 235.13 167.04, 285.68 107.54 M125.64 290.25 C181.81 229.05, 234.81 166.34, 284.97 106.59 M131.45 291.73 C167.01 248.01, 204.98 205.22, 285.15 112.52 M131.26 289.88 C177.54 235.52, 224.62 181.49, 286.6 111.73 M137.26 290.3 C178.12 240.97, 221.24 194.56, 287.94 116.02 M136.46 290.11 C172.33 249.71, 208.68 208.37, 287.42 115.58 M139.99 291.63 C197.28 229.38, 248.37 166.91, 289.29 119 M142.1 289.57 C182.09 244.23, 223.09 196.64, 289.53 120.92 M146.08 290.26 C180.59 253.19, 217.01 213.79, 290.59 123.73 M146.78 290.04 C179.88 252.82, 211.77 215.23, 291.52 124.65 M151.22 289.19 C184.2 252.56, 219.71 214.12, 291.84 128.38 M150.81 291.15 C181.35 255.78, 210.04 222.28, 292.15 128.34 M155.73 291.31 C193.84 248.39, 233.87 205.94, 292.83 136.13 M157.39 290.76 C194.93 247.46, 232.55 205.03, 292.58 134.32 M162.69 291.27 C189.34 257.1, 218.25 225.59, 291.7 141.67 M162.77 289.83 C193.23 253.09, 226.35 216.48, 292.79 141.65 M167.85 291.41 C204.49 250.88, 236.72 210.25, 290.07 148.14 M166.66 290.39 C206.83 245.58, 246.32 199, 292.06 147.56 M173.77 288.33 C216.38 244.1, 255.01 199.93, 293.26 153.09 M174.01 288.68 C209.88 247.22, 247.33 204.12, 291.97 154.11 M181.95 285.57 C219.48 239.37, 260.91 196.08, 291.76 158.22 M181.33 287.27 C211.42 252.87, 239.98 220.2, 291.43 159.77 M187.73 285.68 C231.84 236.27, 269.35 192.66, 293.74 164.53 M189.05 283.85 C218 252.02, 246.53 221.35, 292.31 167.14 M196.2 283.06 C219.67 252.47, 247.77 219.94, 289.6 172.31 M196.63 282.69 C229.11 246.1, 261.15 208.83, 289.29 173.66 M202.59 282.86 C224.85 252.84, 247.9 224.92, 286.46 186.42 M202.3 280.4 C232.13 243.84, 264.8 209.52, 285.6 185.61 M210.2 279.55 C228.16 258.6, 246.02 239.25, 281.21 194.47 M210.14 279.22 C237.99 247.14, 266.98 214.11, 283.29 195.13 M222.09 268.09 C240.5 250.8, 259.63 227.48, 280.52 204.14 M223.06 268.92 C235.45 257.29, 247.16 243.43, 278.54 206.2 M237.24 258.84 C244.78 251.7, 256.47 237.23, 272.6 218.93 M236.24 260.48 C251.36 243.57, 265.63 226.15, 274.62 217.18" stroke="#ffda48" stroke-width="0.5" fill="none"></path><path d="M126.03 1.89 C139.95 -2.17, 158.42 0.89, 173.31 3.41 C188.2 5.92, 202.43 10.02, 215.36 16.97 C228.29 23.93, 240.7 34.2, 250.9 45.15 C261.09 56.1, 270.04 69.21, 276.54 82.68 C283.03 96.16, 287.88 110.97, 289.88 126 C291.88 141.02, 291.35 157.85, 288.52 172.83 C285.7 187.82, 280.16 202.94, 272.92 215.89 C265.69 228.84, 256.05 240.45, 245.12 250.54 C234.19 260.63, 220.79 270, 207.37 276.45 C193.95 282.9, 179.36 287.32, 164.6 289.22 C149.84 291.12, 133.68 290.37, 118.82 287.85 C103.95 285.34, 88.64 281.13, 75.43 274.13 C62.22 267.13, 49.73 256.88, 39.55 245.85 C29.38 234.82, 20.72 221.68, 14.39 207.94 C8.05 194.2, 3.68 178.36, 1.57 163.43 C-0.55 148.49, -0.87 132.82, 1.71 118.33 C4.28 103.84, 9.62 89.49, 17.01 76.5 C24.4 63.52, 35.11 50.83, 46.04 40.43 C56.97 30.02, 67.78 20.65, 82.61 14.07 C97.44 7.49, 124.94 2.7, 135.03 0.97 C145.11 -0.76, 143.05 1.55, 143.11 3.71 M175.06 2.41 C189.45 3.03, 205.26 10.7, 218.46 18.42 C231.65 26.13, 244.5 37.54, 254.23 48.69 C263.96 59.84, 270.9 72.03, 276.84 85.31 C282.77 98.6, 288.14 113.36, 289.85 128.41 C291.57 143.45, 289.98 160.74, 287.11 175.6 C284.25 190.46, 279.74 204.9, 272.67 217.57 C265.6 230.24, 255.77 241.68, 244.67 251.63 C233.57 261.57, 219.64 270.6, 206.07 277.24 C192.5 283.87, 178.34 289.77, 163.24 291.46 C148.15 293.15, 130.28 290.41, 115.49 287.37 C100.69 284.33, 87.27 280.52, 74.47 273.24 C61.67 265.96, 48.95 255.13, 38.69 243.69 C28.43 232.26, 19.25 218.23, 12.93 204.64 C6.61 191.06, 2.38 176.73, 0.78 162.17 C-0.83 147.6, 0.47 132.2, 3.29 117.26 C6.12 102.32, 10.21 85.58, 17.74 72.52 C25.27 59.46, 37.27 48.93, 48.49 38.89 C59.71 28.85, 71.76 18.53, 85.04 12.31 C98.33 6.08, 113.32 3.25, 128.19 1.54 C143.06 -0.17, 166.59 1.5, 174.24 2.05 C181.89 2.6, 174.72 2.16, 174.1 4.87" stroke="#3371a2" stroke-width="1" fill="none"></path></g><g transform="translate(350.91983497251397 101.23661051451072) rotate(359.852570386696 87.92512512207026 36.1029122864155)"><text x="0" y="0" font-family="Virgil, Segoe UI Emoji" font-size="28.88232982913241px" fill="#1e1e1e" text-anchor="start" style="white-space: pre;" direction="ltr" dominant-baseline="text-before-edge">Virtual</text><text x="0" y="36.10291228641551" font-family="Virgil, Segoe UI Emoji" font-size="28.88232982913241px" fill="#1e1e1e" text-anchor="start" style="white-space: pre;" direction="ltr" dominant-baseline="text-before-edge">Environments</text></g><g transform="translate(350.1737060546875 408.2652893066406) rotate(0 94.56997680664062 35)"><text x="0" y="0" font-family="Virgil, Segoe UI Emoji" font-size="28px" fill="#1e1e1e" text-anchor="start" style="white-space: pre;" direction="ltr" dominant-baseline="text-before-edge">     Managing</text><text x="0" y="35" font-family="Virgil, Segoe UI Emoji" font-size="28px" fill="#1e1e1e" text-anchor="start" style="white-space: pre;" direction="ltr" dominant-baseline="text-before-edge">Dependencies</text></g><g transform="translate(255.07953570389566 379.0316684975063) rotate(0 39.755836486816406 15.481716706065441)"><text x="0" y="0" font-family="Virgil, Segoe UI Emoji" font-size="24.770746729704705px" fill="#000" text-anchor="start" style="white-space: pre;" direction="ltr" dominant-baseline="text-before-edge">Python</text></g><g stroke-linecap="round" transform="translate(233.0786950453271 226.60787045899224) rotate(0 54.40786211061271 74.14698957960559)"><path d="M0.47 -0.28 L109.05 -1.94 L109.98 149.52 L-1.14 150.1" stroke="none" stroke-width="0" fill="#3572a5"></path><path d="M0.77 0.79 C35.71 -0.44, 72.83 1.9, 109.5 -0.11 M0.31 0.72 C34.84 -0.09, 69.72 1.07, 108.15 0.28 M108.85 1.67 C108.81 45.17, 107.7 91.15, 108.65 148.02 M108.95 0.43 C107.34 37.27, 106.65 76.11, 108.53 148.46 M107.43 149.01 C68.8 146.54, 28.12 146.05, -1.21 147.07 M109.79 149 C77.4 149.39, 43.81 149.1, -0.13 147.7 M1.57 146.52 C-0.05 116.58, 0.23 83.84, -0.43 1.16 M0.77 149.04 C-1.76 92.45, -1.36 36.52, -0.64 -0.82" stroke="#000000" stroke-width="4" fill="none"></path></g><g stroke-linecap="round" transform="translate(260.11511972732376 244.54501618900696) rotate(0 46.96901058242452 18.578060047278512)"><path d="M0.23 -1.94 L95.1 1.22 L92.8 38.96 L-1.13 36.89" stroke="none" stroke-width="0" fill="#fff"></path><path d="M-1.39 -0.7 C24.56 1.27, 52.54 -0.48, 94.34 1.06 M0 -0.23 C27.02 0.26, 53.3 -0.4, 93.97 -0.73 M95.01 0.2 C93.91 13.28, 93.78 23.88, 93.02 35.41 M93.76 -0.39 C93.12 15.51, 93.71 29.6, 94.65 36.24 M94.36 35.96 C70.79 35.81, 46.06 36.27, -0.09 36.83 M94.69 37.97 C62.61 38.33, 32.49 37.22, -0.76 37.11 M-0.12 38.65 C-0.13 25.03, -0.72 10.13, 1.55 1.05 M-0.99 37.32 C-0.87 29.31, -0.92 20.18, 0.23 -0.14" stroke="#000000" stroke-width="4" fill="none"></path></g><g transform="translate(270.19553626447555 247.24777783648597) rotate(0 39.755836486816406 15.481716706065441)"><text x="0" y="0" font-family="Virgil, Segoe UI Emoji" font-size="24.770746729704705px" fill="#000000" text-anchor="start" style="white-space: pre;" direction="ltr" dominant-baseline="text-before-edge">Python</text></g><g stroke-linecap="round"><g transform="translate(307.2500142376582 324.60872495832245) rotate(0 -9.043402551983377 18.030853421012978)" fill-rule="evenodd"><path d="M0 0 L5.1 0.43 L7.58 3.58 L8.57 11.07 L7.28 17.83 L2.32 21.51 L-15.67 22.49 L-16.47 23.85 L-15.54 25.23 L-4.35 25.74 L-2.95 27.36 L-4.57 32.65 L-9.31 35.6 L-17.81 35.84 L-23.92 33.47 L-25.96 29.87 L-26.29 17.41 L-22.78 13.27 L-9.74 13.27 L-4.79 12.14 L-0.63 7.6 L0 0" stroke="none" stroke-width="0" fill="#ffda48" fill-rule="evenodd"></path><path d="M0 0 C0.85 0.07, 3.84 -0.17, 5.1 0.43 C6.37 1.03, 7.01 1.81, 7.58 3.58 C8.16 5.36, 8.63 8.69, 8.57 11.07 C8.52 13.44, 8.32 16.08, 7.28 17.83 C6.24 19.57, 4.41 20.79, 2.32 21.51 C0.23 22.23, -2.7 22.02, -5.25 22.12 C-7.8 22.23, -11.22 22.09, -12.96 22.15 C-14.69 22.21, -15.24 21.98, -15.67 22.49 C-16.1 23, -17.42 24.68, -15.54 25.23 C-13.65 25.77, -6.42 25.06, -4.35 25.74 C-2.28 26.43, -3.08 28.18, -3.12 29.33 C-3.16 30.48, -3.54 31.6, -4.57 32.65 C-5.6 33.69, -7.1 35.07, -9.31 35.6 C-11.52 36.14, -15.37 36.19, -17.81 35.84 C-20.24 35.48, -22.56 34.46, -23.92 33.47 C-25.28 32.47, -25.53 31.41, -25.96 29.87 C-26.39 28.33, -26.47 26.31, -26.53 24.23 C-26.58 22.16, -26.91 19.24, -26.29 17.41 C-25.66 15.58, -24.43 13.97, -22.78 13.27 C-21.12 12.57, -18.54 13.2, -16.37 13.2 C-14.2 13.2, -11.67 13.44, -9.74 13.27 C-7.81 13.09, -6.31 13.08, -4.79 12.14 C-3.27 11.19, -1.43 9.62, -0.63 7.6 C0.17 5.57, -0.1 1.27, 0 0 M0 0 C0.85 0.07, 3.84 -0.17, 5.1 0.43 C6.37 1.03, 7.01 1.81, 7.58 3.58 C8.16 5.36, 8.63 8.69, 8.57 11.07 C8.52 13.44, 8.32 16.08, 7.28 17.83 C6.24 19.57, 4.41 20.79, 2.32 21.51 C0.23 22.23, -2.7 22.02, -5.25 22.12 C-7.8 22.23, -11.22 22.09, -12.96 22.15 C-14.69 22.21, -15.24 21.98, -15.67 22.49 C-16.1 23, -17.42 24.68, -15.54 25.23 C-13.65 25.77, -6.42 25.06, -4.35 25.74 C-2.28 26.43, -3.08 28.18, -3.12 29.33 C-3.16 30.48, -3.54 31.6, -4.57 32.65 C-5.6 33.69, -7.1 35.07, -9.31 35.6 C-11.52 36.14, -15.37 36.19, -17.81 35.84 C-20.24 35.48, -22.56 34.46, -23.92 33.47 C-25.28 32.47, -25.53 31.41, -25.96 29.87 C-26.39 28.33, -26.47 26.31, -26.53 24.23 C-26.58 22.16, -26.91 19.24, -26.29 17.41 C-25.66 15.58, -24.43 13.97, -22.78 13.27 C-21.12 12.57, -18.54 13.2, -16.37 13.2 C-14.2 13.2, -11.67 13.44, -9.74 13.27 C-7.81 13.09, -6.31 13.08, -4.79 12.14 C-3.27 11.19, -1.43 9.62, -0.63 7.6 C0.17 5.57, -0.1 1.27, 0 0" stroke="#000" stroke-width="2" fill="none"></path></g></g><mask></mask><g stroke-linecap="round"><g transform="translate(277.5949204028276 347.86504881434473) rotate(0 8.002330391654368 -18.469172289996493)" fill-rule="evenodd"><path d="M0 0 L-5.46 -0.02 L-9.05 -3.64 L-10.51 -11.22 L-9.16 -18.29 L-4.6 -22.63 L15.54 -23.04 L15.85 -24.58 L14.37 -26.16 L3.13 -26.74 L1.7 -27.7 L2.74 -34 L8.12 -36.69 L16.98 -37.02 L23.4 -34.81 L26.16 -31.11 L26.42 -24.98 L25.52 -18.05 L22.19 -13.56 L8.48 -13.56 L3.28 -11.76 L0.1 -6.91 L0 0" stroke="none" stroke-width="0" fill="#3371a2" fill-rule="evenodd"></path><path d="M0 0 C-0.91 0, -3.95 0.58, -5.46 -0.02 C-6.97 -0.63, -8.21 -1.77, -9.05 -3.64 C-9.89 -5.51, -10.5 -8.78, -10.51 -11.22 C-10.53 -13.67, -10.14 -16.39, -9.16 -18.29 C-8.17 -20.19, -6.74 -21.84, -4.6 -22.63 C-2.45 -23.42, 0.89 -23.02, 3.72 -23.04 C6.55 -23.06, 10.41 -22.74, 12.38 -22.74 C14.35 -22.74, 15.2 -22.47, 15.54 -23.04 C15.87 -23.61, 16.44 -25.54, 14.37 -26.16 C12.31 -26.78, 5.22 -26.24, 3.13 -26.74 C1.03 -27.25, 1.86 -27.98, 1.79 -29.19 C1.73 -30.4, 1.69 -32.75, 2.74 -34 C3.79 -35.25, 5.74 -36.19, 8.12 -36.69 C10.49 -37.2, 14.43 -37.34, 16.98 -37.02 C19.52 -36.71, 21.87 -35.8, 23.4 -34.81 C24.93 -33.82, 25.65 -32.75, 26.16 -31.11 C26.66 -29.47, 26.52 -27.16, 26.42 -24.98 C26.31 -22.8, 26.23 -19.95, 25.52 -18.05 C24.82 -16.14, 23.87 -14.32, 22.19 -13.56 C20.51 -12.8, 17.74 -13.49, 15.46 -13.49 C13.17 -13.49, 10.51 -13.85, 8.48 -13.56 C6.45 -13.27, 4.67 -12.87, 3.28 -11.76 C1.88 -10.65, 0.65 -8.87, 0.1 -6.91 C-0.44 -4.95, 0.02 -1.15, 0 0 M0 0 C-0.91 0, -3.95 0.58, -5.46 -0.02 C-6.97 -0.63, -8.21 -1.77, -9.05 -3.64 C-9.89 -5.51, -10.5 -8.78, -10.51 -11.22 C-10.53 -13.67, -10.14 -16.39, -9.16 -18.29 C-8.17 -20.19, -6.74 -21.84, -4.6 -22.63 C-2.45 -23.42, 0.89 -23.02, 3.72 -23.04 C6.55 -23.06, 10.41 -22.74, 12.38 -22.74 C14.35 -22.74, 15.2 -22.47, 15.54 -23.04 C15.87 -23.61, 16.44 -25.54, 14.37 -26.16 C12.31 -26.78, 5.22 -26.24, 3.13 -26.74 C1.03 -27.25, 1.86 -27.98, 1.79 -29.19 C1.73 -30.4, 1.69 -32.75, 2.74 -34 C3.79 -35.25, 5.74 -36.19, 8.12 -36.69 C10.49 -37.2, 14.43 -37.34, 16.98 -37.02 C19.52 -36.71, 21.87 -35.8, 23.4 -34.81 C24.93 -33.82, 25.65 -32.75, 26.16 -31.11 C26.66 -29.47, 26.52 -27.16, 26.42 -24.98 C26.31 -22.8, 26.23 -19.95, 25.52 -18.05 C24.82 -16.14, 23.87 -14.32, 22.19 -13.56 C20.51 -12.8, 17.74 -13.49, 15.46 -13.49 C13.17 -13.49, 10.51 -13.85, 8.48 -13.56 C6.45 -13.27, 4.67 -12.87, 3.28 -11.76 C1.88 -10.65, 0.65 -8.87, 0.1 -6.91 C-0.44 -4.95, 0.02 -1.15, 0 0" stroke="#000" stroke-width="2" fill="none"></path></g></g><mask></mask><g stroke-linecap="round" transform="translate(288.33754687467285 313.60165352957017) rotate(0 2.3378776409415423 2.492255041046235)"><path d="M4.68 2.49 C4.68 2.64, 4.66 2.78, 4.64 2.93 C4.62 3.07, 4.58 3.21, 4.53 3.34 C4.49 3.48, 4.43 3.61, 4.36 3.74 C4.29 3.86, 4.22 3.98, 4.13 4.09 C4.04 4.2, 3.94 4.31, 3.84 4.4 C3.74 4.49, 3.62 4.58, 3.51 4.65 C3.39 4.72, 3.26 4.78, 3.14 4.83 C3.01 4.88, 2.88 4.92, 2.74 4.95 C2.61 4.97, 2.47 4.98, 2.34 4.98 C2.2 4.98, 2.07 4.97, 1.93 4.95 C1.8 4.92, 1.67 4.88, 1.54 4.83 C1.41 4.78, 1.29 4.72, 1.17 4.65 C1.05 4.58, 0.94 4.49, 0.84 4.4 C0.73 4.31, 0.63 4.2, 0.55 4.09 C0.46 3.98, 0.38 3.86, 0.31 3.74 C0.25 3.61, 0.19 3.48, 0.14 3.34 C0.09 3.21, 0.06 3.07, 0.04 2.93 C0.01 2.78, 0 2.64, 0 2.49 C0 2.35, 0.01 2.2, 0.04 2.06 C0.06 1.92, 0.09 1.78, 0.14 1.64 C0.19 1.5, 0.25 1.37, 0.31 1.25 C0.38 1.12, 0.46 1, 0.55 0.89 C0.63 0.78, 0.73 0.68, 0.84 0.58 C0.94 0.49, 1.05 0.41, 1.17 0.33 C1.29 0.26, 1.41 0.2, 1.54 0.15 C1.67 0.1, 1.8 0.06, 1.93 0.04 C2.07 0.01, 2.2 0, 2.34 0 C2.47 0, 2.61 0.01, 2.74 0.04 C2.88 0.06, 3.01 0.1, 3.14 0.15 C3.26 0.2, 3.39 0.26, 3.51 0.33 C3.62 0.41, 3.74 0.49, 3.84 0.58 C3.94 0.68, 4.04 0.78, 4.13 0.89 C4.22 1, 4.29 1.12, 4.36 1.25 C4.43 1.37, 4.49 1.5, 4.53 1.64 C4.58 1.78, 4.62 1.92, 4.64 2.06 C4.66 2.2, 4.67 2.42, 4.68 2.49 C4.68 2.56, 4.68 2.42, 4.68 2.49" stroke="none" stroke-width="0" fill="#fff"></path><path d="M4.68 2.49 C4.68 2.64, 4.66 2.78, 4.64 2.93 C4.62 3.07, 4.58 3.21, 4.53 3.34 C4.49 3.48, 4.43 3.61, 4.36 3.74 C4.29 3.86, 4.22 3.98, 4.13 4.09 C4.04 4.2, 3.94 4.31, 3.84 4.4 C3.74 4.49, 3.62 4.58, 3.51 4.65 C3.39 4.72, 3.26 4.78, 3.14 4.83 C3.01 4.88, 2.88 4.92, 2.74 4.95 C2.61 4.97, 2.47 4.98, 2.34 4.98 C2.2 4.98, 2.07 4.97, 1.93 4.95 C1.8 4.92, 1.67 4.88, 1.54 4.83 C1.41 4.78, 1.29 4.72, 1.17 4.65 C1.05 4.58, 0.94 4.49, 0.84 4.4 C0.73 4.31, 0.63 4.2, 0.55 4.09 C0.46 3.98, 0.38 3.86, 0.31 3.74 C0.25 3.61, 0.19 3.48, 0.14 3.34 C0.09 3.21, 0.06 3.07, 0.04 2.93 C0.01 2.78, 0 2.64, 0 2.49 C0 2.35, 0.01 2.2, 0.04 2.06 C0.06 1.92, 0.09 1.78, 0.14 1.64 C0.19 1.5, 0.25 1.37, 0.31 1.25 C0.38 1.12, 0.46 1, 0.55 0.89 C0.63 0.78, 0.73 0.68, 0.84 0.58 C0.94 0.49, 1.05 0.41, 1.17 0.33 C1.29 0.26, 1.41 0.2, 1.54 0.15 C1.67 0.1, 1.8 0.06, 1.93 0.04 C2.07 0.01, 2.2 0, 2.34 0 C2.47 0, 2.61 0.01, 2.74 0.04 C2.88 0.06, 3.01 0.1, 3.14 0.15 C3.26 0.2, 3.39 0.26, 3.51 0.33 C3.62 0.41, 3.74 0.49, 3.84 0.58 C3.94 0.68, 4.04 0.78, 4.13 0.89 C4.22 1, 4.29 1.12, 4.36 1.25 C4.43 1.37, 4.49 1.5, 4.53 1.64 C4.58 1.78, 4.62 1.92, 4.64 2.06 C4.66 2.2, 4.67 2.42, 4.68 2.49 C4.68 2.56, 4.68 2.42, 4.68 2.49" stroke="#000" stroke-width="1" fill="none"></path></g><g stroke-linecap="round" transform="translate(289.9095882347441 352.8681154724754) rotate(0 2.3378776409415423 2.492255041046235)"><path d="M4.68 2.49 C4.68 2.64, 4.66 2.78, 4.64 2.93 C4.62 3.07, 4.58 3.21, 4.53 3.34 C4.49 3.48, 4.43 3.61, 4.36 3.74 C4.29 3.86, 4.22 3.98, 4.13 4.09 C4.04 4.2, 3.94 4.31, 3.84 4.4 C3.74 4.49, 3.62 4.58, 3.51 4.65 C3.39 4.72, 3.26 4.78, 3.14 4.83 C3.01 4.88, 2.88 4.92, 2.74 4.95 C2.61 4.97, 2.47 4.98, 2.34 4.98 C2.2 4.98, 2.07 4.97, 1.93 4.95 C1.8 4.92, 1.67 4.88, 1.54 4.83 C1.41 4.78, 1.29 4.72, 1.17 4.65 C1.05 4.58, 0.94 4.49, 0.84 4.4 C0.73 4.31, 0.63 4.2, 0.55 4.09 C0.46 3.98, 0.38 3.86, 0.31 3.74 C0.25 3.61, 0.19 3.48, 0.14 3.34 C0.09 3.21, 0.06 3.07, 0.04 2.93 C0.01 2.78, 0 2.64, 0 2.49 C0 2.35, 0.01 2.2, 0.04 2.06 C0.06 1.92, 0.09 1.78, 0.14 1.64 C0.19 1.5, 0.25 1.37, 0.31 1.25 C0.38 1.12, 0.46 1, 0.55 0.89 C0.63 0.78, 0.73 0.68, 0.84 0.58 C0.94 0.49, 1.05 0.41, 1.17 0.33 C1.29 0.26, 1.41 0.2, 1.54 0.15 C1.67 0.1, 1.8 0.06, 1.93 0.04 C2.07 0.01, 2.2 0, 2.34 0 C2.47 0, 2.61 0.01, 2.74 0.04 C2.88 0.06, 3.01 0.1, 3.14 0.15 C3.26 0.2, 3.39 0.26, 3.51 0.33 C3.62 0.41, 3.74 0.49, 3.84 0.58 C3.94 0.68, 4.04 0.78, 4.13 0.89 C4.22 1, 4.29 1.12, 4.36 1.25 C4.43 1.37, 4.49 1.5, 4.53 1.64 C4.58 1.78, 4.62 1.92, 4.64 2.06 C4.66 2.2, 4.67 2.42, 4.68 2.49 C4.68 2.56, 4.68 2.42, 4.68 2.49" stroke="none" stroke-width="0" fill="#fff"></path><path d="M4.68 2.49 C4.68 2.64, 4.66 2.78, 4.64 2.93 C4.62 3.07, 4.58 3.21, 4.53 3.34 C4.49 3.48, 4.43 3.61, 4.36 3.74 C4.29 3.86, 4.22 3.98, 4.13 4.09 C4.04 4.2, 3.94 4.31, 3.84 4.4 C3.74 4.49, 3.62 4.58, 3.51 4.65 C3.39 4.72, 3.26 4.78, 3.14 4.83 C3.01 4.88, 2.88 4.92, 2.74 4.95 C2.61 4.97, 2.47 4.98, 2.34 4.98 C2.2 4.98, 2.07 4.97, 1.93 4.95 C1.8 4.92, 1.67 4.88, 1.54 4.83 C1.41 4.78, 1.29 4.72, 1.17 4.65 C1.05 4.58, 0.94 4.49, 0.84 4.4 C0.73 4.31, 0.63 4.2, 0.55 4.09 C0.46 3.98, 0.38 3.86, 0.31 3.74 C0.25 3.61, 0.19 3.48, 0.14 3.34 C0.09 3.21, 0.06 3.07, 0.04 2.93 C0.01 2.78, 0 2.64, 0 2.49 C0 2.35, 0.01 2.2, 0.04 2.06 C0.06 1.92, 0.09 1.78, 0.14 1.64 C0.19 1.5, 0.25 1.37, 0.31 1.25 C0.38 1.12, 0.46 1, 0.55 0.89 C0.63 0.78, 0.73 0.68, 0.84 0.58 C0.94 0.49, 1.05 0.41, 1.17 0.33 C1.29 0.26, 1.41 0.2, 1.54 0.15 C1.67 0.1, 1.8 0.06, 1.93 0.04 C2.07 0.01, 2.2 0, 2.34 0 C2.47 0, 2.61 0.01, 2.74 0.04 C2.88 0.06, 3.01 0.1, 3.14 0.15 C3.26 0.2, 3.39 0.26, 3.51 0.33 C3.62 0.41, 3.74 0.49, 3.84 0.58 C3.94 0.68, 4.04 0.78, 4.13 0.89 C4.22 1, 4.29 1.12, 4.36 1.25 C4.43 1.37, 4.49 1.5, 4.53 1.64 C4.58 1.78, 4.62 1.92, 4.64 2.06 C4.66 2.2, 4.67 2.42, 4.68 2.49 C4.68 2.56, 4.68 2.42, 4.68 2.49" stroke="#000" stroke-width="1" fill="none"></path></g><g stroke-linecap="round" transform="translate(10 41.02015686035156) rotate(0 285.005859375 266.6794662475586)"><path d="M397.76 21.24 C418.67 24.97, 436.74 40.13, 454.15 52.39 C471.56 64.66, 488.01 79.11, 502.2 94.84 C516.4 110.56, 529.4 128.52, 539.33 146.75 C549.26 164.98, 556.76 184.24, 561.8 204.21 C566.85 224.19, 569.36 245.98, 569.6 266.62 C569.84 287.27, 568.08 308.38, 563.24 328.07 C558.4 347.77, 550.52 366.72, 540.54 384.82 C530.56 402.92, 517.4 420.74, 503.35 436.68 C489.3 452.63, 473.61 468.02, 456.25 480.48 C438.88 492.94, 419.2 503.42, 399.16 511.43 C379.12 519.44, 357.65 524.78, 335.99 528.51 C314.33 532.24, 291.14 534.93, 269.21 533.82 C247.28 532.71, 225.46 527.69, 204.4 521.85 C183.34 516.02, 161.89 508.82, 142.82 498.79 C123.76 488.77, 105.76 475.88, 89.99 461.7 C74.22 447.53, 60.35 430.81, 48.22 413.73 C36.1 396.64, 24.81 378.36, 17.25 359.21 C9.68 340.06, 5.47 319.25, 2.83 298.83 C0.2 278.41, -0.91 257.26, 1.44 236.68 C3.79 216.1, 9.29 194.63, 16.95 175.35 C24.6 156.07, 35.25 138.15, 47.37 120.98 C59.49 103.81, 73.8 86.51, 89.68 72.34 C105.56 58.17, 123.98 46.15, 142.64 35.95 C161.3 25.75, 180.8 16.93, 201.64 11.14 C222.48 5.35, 245.58 2.3, 267.67 1.23 C289.76 0.15, 311 0.55, 334.19 4.69 C357.38 8.82, 393.86 21.1, 406.81 26.04 C419.77 30.97, 414.2 30.33, 411.94 34.3 M354.17 8.38 C375.72 8.9, 396.13 19.31, 415.51 28.52 C434.88 37.72, 453.65 49.92, 470.4 63.63 C487.14 77.34, 502.94 94.08, 515.99 110.75 C529.03 127.43, 540.32 144.93, 548.68 163.66 C557.04 182.39, 562.72 203.21, 566.16 223.14 C569.6 243.08, 570.64 263.01, 569.33 283.27 C568.02 303.53, 564.64 325.08, 558.27 344.71 C551.9 364.33, 542.18 383.14, 531.11 401.01 C520.03 418.88, 507 437.15, 491.85 451.93 C476.7 466.71, 458.96 478.64, 440.2 489.7 C421.44 500.76, 400.26 511.47, 379.3 518.3 C358.35 525.13, 336.21 528.57, 314.48 530.71 C292.75 532.84, 270.44 533.71, 248.92 531.09 C227.4 528.47, 206.05 522.1, 185.36 514.99 C164.68 507.87, 142.85 499.58, 124.82 488.41 C106.8 477.23, 92 463.21, 77.21 447.93 C62.43 432.66, 47.24 414.8, 36.11 396.76 C24.98 378.71, 16.58 358.96, 10.43 339.68 C4.29 320.41, 0.06 301.56, -0.76 281.11 C-1.58 260.66, 1.56 237.22, 5.52 217 C9.48 196.79, 14.08 178.24, 23.02 159.82 C31.95 141.39, 45.66 123.06, 59.15 106.46 C72.63 89.87, 87.29 73.68, 103.91 60.25 C120.53 46.82, 139.33 34.68, 158.88 25.86 C178.42 17.04, 199.56 11.63, 221.18 7.34 C242.79 3.06, 266.68 0.17, 288.55 0.14 C310.42 0.11, 341.91 4.79, 352.41 7.15 C362.91 9.51, 352.59 9.66, 351.55 14.31" stroke="#1e1e1e" stroke-width="1" fill="none"></path></g><g transform="translate(78.99029541015625 119.81826782226562) rotate(0 64.04998016357422 35)"><text x="0" y="0" font-family="Virgil, Segoe UI Emoji" font-size="28px" fill="#1e1e1e" text-anchor="start" style="white-space: pre;" direction="ltr" dominant-baseline="text-before-edge">  Building</text><text x="0" y="35" font-family="Virgil, Segoe UI Emoji" font-size="28px" fill="#1e1e1e" text-anchor="start" style="white-space: pre;" direction="ltr" dominant-baseline="text-before-edge">Packages</text></g><g transform="translate(63.30389404296875 396.3126220703125) rotate(0 88.7739486694336 35)"><text x="0" y="0" font-family="Virgil, Segoe UI Emoji" font-size="28px" fill="#1e1e1e" text-anchor="start" style="white-space: pre;" direction="ltr" dominant-baseline="text-before-edge"> Tools</text><text x="0" y="35" font-family="Virgil, Segoe UI Emoji" font-size="28px" fill="#1e1e1e" text-anchor="start" style="white-space: pre;" direction="ltr" dominant-baseline="text-before-edge">Configuration</text></g><g transform="translate(211.2440185546875 10) rotate(0 92.30196380615234 17.5)"><text x="0" y="0" font-family="Virgil, Segoe UI Emoji" font-size="28px" fill="#1e1e1e" text-anchor="start" style="white-space: pre;" direction="ltr" dominant-baseline="text-before-edge">Today's Talk</text></g></svg>