<?xml version="1.0" encoding="utf-8"?>
<svg viewBox="-704.216 -20.75 1908.432 541.5" width="1908.432" height="541.5" xmlns="http://www.w3.org/2000/svg">
  <g id="pytest_logo" transform="matrix(1, 0, 0, 1, -793.41803, -234.992233)" style="">
    <g id="graphics" transform="matrix(1, 0, 0, 1, -411.248718, 43.242237)">
      <path d="M521.576,213.75 L952.616,213.75 C964.283,213.75 973.741,223.208 973.741,234.875 L973.741,234.875 C973.741,246.542 964.283,256 952.616,256 L521.576,256 C509.909,256 500.451,246.542 500.451,234.875 L500.451,234.875 C500.451,223.208 509.909,213.75 521.576,213.75 z" fill="#696969" id="horizontal_bar"/>
      <g id="top_bars">
        <path d="M525.333,171 L612,171 L612,191 L525.333,191 L525.333,171 z" fill="#009FE3"/>
        <path d="M638.667,171 L725.333,171 L725.333,191 L638.667,191 L638.667,171 z" fill="#C7D302"/>
        <path d="M750.5,171 L837.167,171 L837.167,191 L750.5,191 L750.5,171 z" fill="#F07E16"/>
        <path d="M861.861,171 L948.528,171 L948.528,191 L861.861,191 L861.861,171 z" fill="#DF2815"/>
      </g>
      <g id="bottom_bars">
        <path d="M861.861,278 L948.528,278 L948.528,424.5 L861.861,424.5 L861.861,278 z" fill="#DF2815"/>
        <path d="M750.5,278 L837.328,278 L837.328,516 L750.5,516 L750.5,278 z" fill="#F07E16"/>
        <path d="M638.667,278 L725.328,278 L725.328,634.5 L638.667,634.5 L638.667,278 z" fill="#C7D302"/>
        <path d="M525.333,278 L612,278 L612,712.5 L525.333,712.5 L525.333,278 z" fill="#009FE3"/>
      </g>
    </g>
    <g id="pytest" transform="matrix(1, 0, 0, 1, -422.468323, 27.781239)">
      <path d="M 1355.405 540.502 C 1346.858 540.502 1339.109 539.561 1332.156 537.677 C 1325.203 535.794 1318.937 533.295 1313.36 530.181 C 1307.783 527.067 1302.858 523.409 1298.585 519.208 C 1294.312 515.007 1290.509 510.589 1287.178 505.953 L 1284.57 505.953 C 1285.005 510.879 1285.439 515.587 1285.874 520.077 C 1286.163 523.843 1286.453 527.718 1286.743 531.702 C 1287.033 535.686 1287.178 538.836 1287.178 541.154 L 1287.178 643.06 L 1247.632 643.06 L 1247.632 297.577 L 1279.79 297.577 L 1285.439 329.735 L 1287.178 329.735 C 1290.509 324.665 1294.275 319.921 1298.476 315.503 C 1302.677 311.085 1307.566 307.247 1313.143 303.987 C 1318.72 300.728 1324.985 298.121 1331.938 296.165 C 1338.891 294.209 1346.714 293.231 1355.405 293.231 C 1369.022 293.231 1381.407 295.839 1392.561 301.053 C 1403.715 306.269 1413.239 314.055 1421.134 324.412 C 1429.029 334.77 1435.149 347.626 1439.494 362.98 C 1443.84 378.335 1446.013 396.152 1446.013 416.432 C 1446.013 436.857 1443.84 454.783 1439.494 470.21 C 1435.149 485.638 1429.029 498.566 1421.134 508.995 C 1413.239 519.425 1403.715 527.284 1392.561 532.571 C 1381.407 537.859 1369.022 540.502 1355.405 540.502 Z M 1347.8 326.041 C 1336.791 326.041 1327.484 327.707 1319.879 331.039 C 1312.274 334.371 1306.117 339.441 1301.41 346.249 C 1296.702 353.057 1293.225 361.531 1290.98 371.671 C 1288.735 381.811 1287.467 393.762 1287.178 407.523 L 1287.178 416.432 C 1287.178 431.063 1288.156 444.064 1290.111 455.435 C 1292.066 466.806 1295.398 476.366 1300.106 484.116 C 1304.814 491.866 1311.079 497.733 1318.901 501.716 C 1326.724 505.7 1336.502 507.692 1348.235 507.692 C 1367.79 507.692 1382.167 499.798 1391.366 484.008 C 1400.564 468.218 1405.163 445.548 1405.163 415.997 C 1405.163 385.867 1400.564 363.342 1391.366 348.422 C 1382.167 333.502 1367.645 326.041 1347.8 326.041 Z" fill="#696969"/>
      <path d="M 1472.739 297.577 L 1513.806 297.577 L 1560.522 430.773 C 1562.55 436.567 1564.614 442.651 1566.715 449.025 C 1568.816 455.399 1570.771 461.772 1572.582 468.146 C 1574.393 474.52 1575.95 480.676 1577.253 486.615 C 1578.557 492.555 1579.499 498.059 1580.078 503.129 L 1581.382 503.129 C 1582.106 499.508 1583.265 494.583 1584.858 488.353 C 1586.451 482.125 1588.226 475.498 1590.182 468.472 C 1592.137 461.446 1594.165 454.529 1596.266 447.721 C 1598.366 440.913 1600.213 435.119 1601.806 430.338 L 1645.046 297.577 L 1685.896 297.577 L 1591.594 567.228 C 1587.538 578.962 1583.156 589.5 1578.448 598.843 C 1573.741 608.187 1568.272 616.117 1562.043 622.635 C 1555.814 629.154 1548.499 634.188 1540.097 637.737 C 1531.696 641.286 1521.701 643.06 1510.112 643.06 C 1502.579 643.06 1496.061 642.662 1490.556 641.865 C 1485.052 641.069 1480.344 640.236 1476.433 639.366 L 1476.433 607.86 C 1479.475 608.585 1483.314 609.201 1487.949 609.707 C 1492.584 610.215 1497.437 610.468 1502.507 610.468 C 1509.46 610.468 1515.472 609.635 1520.542 607.969 C 1525.612 606.303 1530.03 603.877 1533.796 600.69 C 1537.563 597.503 1540.786 593.592 1543.465 588.956 C 1546.145 584.321 1548.571 579.034 1550.744 573.094 L 1563.13 538.329 L 1472.739 297.577 Z" fill="#696969"/>
      <path d="M 1798.014 508.126 C 1800.621 508.126 1803.555 507.982 1806.814 507.692 C 1810.073 507.402 1813.224 507.04 1816.266 506.605 C 1819.308 506.171 1822.097 505.664 1824.632 505.084 C 1827.167 504.505 1829.086 503.998 1830.39 503.563 L 1830.39 533.549 C 1828.507 534.418 1826.116 535.287 1823.219 536.156 C 1820.322 537.026 1817.136 537.786 1813.659 538.437 C 1810.182 539.089 1806.561 539.596 1802.795 539.958 C 1799.028 540.321 1795.334 540.502 1791.713 540.502 C 1782.732 540.502 1774.402 539.343 1766.725 537.025 C 1759.048 534.708 1752.421 530.724 1746.844 525.074 C 1741.267 519.425 1736.885 511.784 1733.698 502.151 C 1730.511 492.518 1728.918 480.386 1728.918 465.756 L 1728.918 327.345 L 1695.238 327.345 L 1695.238 309.745 L 1728.918 292.797 L 1745.866 242.821 L 1768.681 242.821 L 1768.681 297.577 L 1828.652 297.577 L 1828.652 327.345 L 1768.681 327.345 L 1768.681 465.756 C 1768.681 479.807 1770.962 490.381 1775.525 497.479 C 1780.088 504.577 1787.585 508.126 1798.014 508.126 Z" fill="#009FE3"/>
      <path d="M 1970.973 540.502 C 1955.039 540.502 1940.481 537.822 1927.299 532.462 C 1914.117 527.103 1902.782 519.281 1893.294 508.995 C 1883.806 498.711 1876.454 485.963 1871.239 470.753 C 1866.024 455.543 1863.417 438.161 1863.417 418.605 C 1863.417 398.905 1865.807 381.304 1870.588 365.804 C 1875.368 350.305 1882.104 337.159 1890.795 326.367 C 1899.486 315.575 1909.88 307.355 1921.975 301.705 C 1934.071 296.056 1947.434 293.231 1962.065 293.231 C 1976.406 293.231 1989.298 295.803 2000.741 300.945 C 2012.185 306.087 2021.891 313.33 2029.858 322.673 C 2037.825 332.017 2043.945 343.243 2048.218 356.353 C 2052.491 369.463 2054.628 383.984 2054.628 399.918 L 2054.628 424.471 L 1904.267 424.471 C 1904.991 452.429 1910.894 472.998 1921.975 486.18 C 1933.057 499.362 1949.535 505.953 1971.408 505.953 C 1978.795 505.953 1985.64 505.591 1991.941 504.867 C 1998.242 504.143 2004.326 503.093 2010.193 501.716 C 2016.06 500.34 2021.745 498.602 2027.25 496.501 C 2032.755 494.401 2038.332 492.048 2043.981 489.44 L 2043.981 524.64 C 2038.187 527.392 2032.501 529.782 2026.924 531.81 C 2021.347 533.838 2015.626 535.504 2009.759 536.808 C 2003.892 538.112 1997.808 539.053 1991.507 539.633 C 1985.206 540.213 1978.361 540.502 1970.973 540.502 Z M 1961.195 326.041 C 1944.682 326.041 1931.608 331.691 1921.975 342.989 C 1912.342 354.289 1906.729 370.73 1905.136 392.313 L 2012.04 392.313 C 2012.04 382.463 2011.062 373.446 2009.107 365.261 C 2007.151 357.077 2004.109 350.088 1999.981 344.293 C 1995.852 338.499 1990.601 334.009 1984.228 330.822 C 1977.854 327.635 1970.176 326.041 1961.195 326.041 Z" fill="#009FE3"/>
      <path d="M 2257.572 470.753 C 2257.572 482.342 2255.472 492.482 2251.271 501.173 C 2247.07 509.865 2241.023 517.144 2233.128 523.01 C 2225.233 528.877 2215.709 533.259 2204.555 536.156 C 2193.401 539.054 2180.871 540.502 2166.964 540.502 C 2151.175 540.502 2137.631 539.235 2126.332 536.699 C 2115.033 534.165 2105.111 530.435 2096.564 525.509 L 2096.564 489.44 C 2101.055 491.758 2106.052 494.039 2111.557 496.284 C 2117.062 498.53 2122.856 500.522 2128.94 502.26 C 2135.024 503.998 2141.289 505.411 2147.735 506.497 C 2154.181 507.583 2160.591 508.126 2166.964 508.126 C 2176.38 508.126 2184.383 507.33 2190.974 505.736 C 2197.565 504.143 2202.925 501.862 2207.054 498.892 C 2211.182 495.922 2214.188 492.301 2216.071 488.027 C 2217.954 483.754 2218.896 479.01 2218.896 473.795 C 2218.896 469.305 2218.172 465.249 2216.723 461.627 C 2215.274 458.006 2212.631 454.421 2208.792 450.872 C 2204.953 447.323 2199.702 443.738 2193.039 440.116 C 2186.376 436.495 2177.829 432.439 2167.399 427.948 C 2156.969 423.458 2147.59 419.04 2139.261 414.694 C 2130.932 410.348 2123.87 405.495 2118.075 400.135 C 2112.281 394.776 2107.827 388.584 2104.712 381.558 C 2101.598 374.532 2100.041 366.167 2100.041 356.461 C 2100.041 346.321 2102.033 337.304 2106.016 329.409 C 2109.999 321.515 2115.613 314.888 2122.856 309.528 C 2130.099 304.168 2138.79 300.112 2148.93 297.36 C 2159.07 294.608 2170.369 293.231 2182.826 293.231 C 2196.877 293.231 2209.733 294.752 2221.394 297.794 C 2233.055 300.836 2244.101 304.82 2254.53 309.745 L 2240.841 341.686 C 2231.426 337.486 2221.757 333.828 2211.834 330.713 C 2201.911 327.599 2191.808 326.041 2181.523 326.041 C 2166.747 326.041 2155.81 328.468 2148.712 333.32 C 2141.615 338.173 2138.066 345.09 2138.066 354.071 C 2138.066 359.141 2138.899 363.559 2140.564 367.325 C 2142.23 371.092 2145.091 374.641 2149.147 377.972 C 2153.203 381.304 2158.635 384.672 2165.443 388.076 C 2172.252 391.48 2180.726 395.283 2190.866 399.484 C 2201.295 403.83 2210.602 408.175 2218.787 412.521 C 2226.972 416.867 2233.961 421.755 2239.755 427.187 C 2245.549 432.62 2249.967 438.813 2253.009 445.765 C 2256.051 452.719 2257.572 461.048 2257.572 470.753 Z" fill="#009FE3"/>
      <path d="M 2387.726 508.126 C 2390.333 508.126 2393.267 507.982 2396.526 507.692 C 2399.785 507.402 2402.936 507.04 2405.978 506.605 C 2409.02 506.171 2411.809 505.664 2414.344 505.084 C 2416.879 504.505 2418.798 503.998 2420.102 503.563 L 2420.102 533.549 C 2418.219 534.418 2415.828 535.287 2412.931 536.156 C 2410.034 537.026 2406.848 537.786 2403.371 538.437 C 2399.894 539.089 2396.273 539.596 2392.506 539.958 C 2388.74 540.321 2385.046 540.502 2381.425 540.502 C 2372.444 540.502 2364.114 539.343 2356.437 537.025 C 2348.76 534.708 2342.132 530.724 2336.555 525.074 C 2330.978 519.425 2326.597 511.784 2323.41 502.151 C 2320.223 492.518 2318.629 480.386 2318.629 465.756 L 2318.629 327.345 L 2284.95 327.345 L 2284.95 309.745 L 2318.629 292.797 L 2335.578 242.821 L 2358.393 242.821 L 2358.393 297.577 L 2418.363 297.577 L 2418.363 327.345 L 2358.393 327.345 L 2358.393 465.756 C 2358.393 479.807 2360.674 490.381 2365.237 497.479 C 2369.8 504.577 2377.297 508.126 2387.726 508.126 Z" fill="#009FE3"/>
    </g>
  </g>
</svg>